# xmcd
#
# Track frame offsets:
#	187
#	5545
#	12490
#	23412
#	59410
#	72600
#	90187
#	128365
#	157615
#	188252
#	200850
#	221497
#	231760
#	249445
#	265225
#
# Disc length: 3607 seconds
#
# Revision: 1
# Processed by: cddbd v1.5.1PL0 Copyright (c) Steve Scherf et al.
# Submitted via: CDex 1.50Beta5
#
DISCID=b70e150f
DTITLE=結城比呂 - 覇王大系リューナイト CDシネマ4「ティア・ダナーンの闘い」最終章
DYEAR=1995
DGENRE=
TTITLE0=結城比呂/前話回想*ドラマ
TTITLE1=三重野瞳/Run〜今日が変わるMagic〜
TTITLE2=結城比呂/決戦前*ドラマ
TTITLE3=結城比呂/忍者・才蔵*ドラマ
TTITLE4=結城比呂/トバス奪還*ドラマ
TTITLE5=結城比呂/新たな人質*ドラマ
TTITLE6=結城比呂/伝説の女神*ドラマ
TTITLE7=結城比呂/ミランダの正体*ドラマ
TTITLE8=結城比呂/リュー改造*ドラマ
TTITLE9=結城比呂/交換条件*ドラマ
TTITLE10=結城比呂/ミランダの野望*ドラマ
TTITLE11=結城比呂/秘められた能力*ドラマ
TTITLE12=結城比呂/対決*ドラマ
TTITLE13=結城比呂/明日に向かって*ドラマ
TTITLE14=三重野瞳/終わらない季節
EXTD=
EXTT0=
EXTT1=
EXTT2=
EXTT3=
EXTT4=
EXTT5=
EXTT6=
EXTT7=
EXTT8=
EXTT9=
EXTT10=
EXTT11=
EXTT12=
EXTT13=
EXTT14=
PLAYORDER=
